<?xml version="1.0" standalone="no"?>
<!DOCTYPE svg PUBLIC "-//W3C//DTD SVG 20010904//EN"
 "http://www.w3.org/TR/2001/REC-SVG-20010904/DTD/svg10.dtd">
<svg version="1.0" xmlns="http://www.w3.org/2000/svg"
 width="1888.000000pt" height="718.000000pt" viewBox="0 0 1888.000000 718.000000"
 preserveAspectRatio="xMidYMid meet">

<g transform="translate(0.000000,718.000000) scale(0.100000,-0.100000)"
fill="#000000" stroke="none">
<path d="M0 7146 c0 -27 28 -75 133 -233 169 -253 281 -448 432 -748 242 -479
376 -807 644 -1577 285 -820 469 -1225 739 -1632 500 -756 1178 -1173 2106
-1297 198 -26 610 -36 796 -20 194 17 455 63 658 117 97 25 380 113 627 194
618 204 824 259 1120 302 118 17 550 17 670 0 220 -32 505 -106 697 -183 343
-137 581 -296 1108 -744 461 -391 620 -504 915 -646 414 -199 887 -280 1401
-239 549 44 921 220 1310 622 147 152 251 282 514 638 218 296 238 321 375
479 227 262 474 426 748 498 93 24 119 27 287 27 164 0 200 -3 315 -28 156
-33 394 -111 524 -172 220 -103 401 -242 687 -528 121 -122 296 -309 388 -416
602 -698 849 -953 1134 -1167 157 -118 419 -262 526 -289 l26 -6 0 3541 0
3541 -9440 0 -9440 0 0 -34z m8951 -1335 c25 -25 29 -37 29 -84 0 -65 -27
-152 -85 -272 -59 -122 -78 -145 -121 -145 -76 0 -92 33 -68 136 8 37 19 119
23 184 12 164 43 209 144 210 40 0 53 -5 78 -29z m2093 9 c52 -32 79 -92 84
-186 8 -149 -47 -316 -152 -464 l-46 -65 44 -13 c87 -25 173 -131 192 -235 l7
-39 51 7 c28 4 56 12 62 18 6 7 19 48 29 92 20 90 46 150 70 159 9 3 38 6 65
6 91 0 96 -24 50 -255 -42 -213 -39 -315 11 -315 22 0 67 31 105 72 40 44 41
45 47 144 7 104 36 244 62 294 22 42 65 62 128 58 66 -4 67 -10 33 -161 -42
-189 -42 -192 9 -96 86 163 201 259 307 259 39 0 54 -5 73 -25 34 -33 33 -92
-5 -290 -16 -86 -30 -174 -30 -195 0 -80 54 -77 140 8 l57 57 7 143 c24 519
161 933 338 1023 21 11 58 19 85 19 68 0 108 -28 140 -96 23 -52 25 -64 21
-158 -4 -80 -12 -118 -36 -184 -48 -130 -148 -281 -296 -451 -56 -64 -56 -65
-56 -130 l1 -66 33 67 c89 178 203 278 316 278 41 0 56 -5 75 -25 34 -33 33
-92 -5 -290 -16 -86 -30 -174 -30 -195 0 -73 46 -77 123 -10 52 46 63 74 71
185 7 90 38 231 61 275 22 42 65 62 128 58 66 -4 67 -11 33 -161 -42 -186 -42
-192 -3 -115 92 180 204 278 317 278 109 0 121 -57 70 -315 -16 -82 -30 -167
-30 -187 0 -37 20 -68 44 -68 21 0 90 54 124 98 32 40 32 41 26 124 -13 167
41 527 107 713 90 257 191 375 320 375 46 0 55 -4 89 -38 49 -49 70 -118 70
-234 0 -226 -114 -525 -316 -829 -59 -89 -63 -99 -54 -129 19 -67 66 -90 142
-70 33 9 61 31 125 96 46 46 89 84 97 84 41 0 61 -80 36 -146 -15 -39 -127
-144 -190 -178 -45 -24 -70 -31 -135 -34 -69 -3 -86 0 -125 20 -26 13 -60 43
-79 70 l-35 46 -50 -45 c-75 -67 -118 -86 -211 -90 -67 -4 -85 -1 -112 16 -70
44 -85 123 -54 293 25 140 27 178 7 178 -37 0 -129 -173 -175 -328 -44 -148
-55 -162 -123 -162 -42 0 -72 20 -88 60 -7 16 -14 30 -17 30 -2 0 -21 -13 -41
-30 -50 -40 -112 -60 -186 -60 -140 0 -187 90 -151 290 28 153 30 200 11 200
-39 0 -123 -155 -175 -326 -39 -124 -65 -154 -141 -162 -59 -5 -84 11 -94 59
l-6 30 -45 -31 c-62 -43 -117 -60 -189 -60 -146 0 -187 88 -147 312 25 141 27
178 6 178 -38 0 -126 -167 -174 -329 -44 -146 -55 -161 -123 -161 -42 0 -72
20 -88 59 l-12 30 -32 -24 c-51 -39 -118 -65 -169 -65 -119 0 -183 74 -194
224 l-5 71 -53 -3 -53 -4 -17 -46 c-67 -184 -232 -280 -396 -230 -156 46 -229
269 -200 603 37 415 172 762 329 844 49 27 125 27 166 1z m-4673 -103 c19 -12
45 -44 59 -72 22 -44 25 -62 24 -150 -1 -113 -24 -196 -76 -278 -48 -74 -149
-161 -240 -204 l-80 -38 4 -140 c5 -147 17 -196 60 -242 52 -55 150 -50 231
12 l44 33 12 99 c23 191 68 342 106 357 9 3 38 6 65 6 91 0 96 -24 50 -255
-42 -213 -39 -315 11 -315 27 0 73 36 139 110 79 88 102 97 129 49 10 -18 12
-39 7 -73 -6 -41 -17 -58 -78 -121 -87 -92 -165 -135 -245 -135 -64 0 -101 17
-140 65 l-29 34 -48 -34 c-72 -51 -134 -68 -225 -63 -91 6 -140 28 -198 91
-80 86 -113 194 -113 363 l0 96 -27 -6 c-55 -11 -198 -26 -250 -26 -41 0 -53
-4 -53 -15 0 -15 -68 -312 -90 -394 -7 -26 -26 -59 -45 -78 -27 -27 -40 -33
-78 -33 -30 0 -53 7 -71 21 -34 27 -35 77 -2 207 14 53 34 136 44 185 l20 87
-62 0 c-82 0 -106 17 -106 75 0 24 3 51 6 60 11 28 60 45 132 45 l69 0 18 122
c42 283 18 369 -93 339 -52 -15 -117 -65 -176 -140 -57 -70 -92 -81 -122 -36
-52 79 72 243 246 327 48 23 83 32 137 36 127 8 196 -36 229 -144 18 -62 18
-241 -1 -368 -8 -55 -15 -104 -15 -109 0 -10 295 -5 306 5 3 3 16 52 29 109
62 272 172 471 297 533 68 34 141 35 189 3z m2223 -48 c39 -31 36 -81 -8 -125
-34 -34 -34 -34 -129 -34 l-94 0 -47 -287 c-26 -159 -59 -376 -75 -483 l-27
-195 92 -5 c112 -6 134 -20 134 -86 0 -35 -5 -47 -31 -68 -30 -25 -35 -26
-167 -26 -75 0 -212 -5 -304 -12 l-168 -12 -25 24 c-31 29 -33 77 -4 114 32
41 57 50 154 56 l89 5 19 125 c10 69 40 262 67 430 27 168 52 331 55 363 l7
57 -89 0 c-97 0 -126 11 -137 55 -4 14 0 40 8 60 26 61 44 64 367 65 275 0
287 -1 313 -21z m-1863 -267 c49 -55 33 -142 -34 -182 -61 -38 -180 -20 -207
29 -15 30 -12 104 6 130 32 45 73 62 143 58 57 -3 67 -7 92 -35z m4870 0 c49
-55 33 -142 -34 -182 -61 -38 -180 -20 -207 29 -15 30 -12 104 6 130 32 45 73
62 143 58 57 -3 67 -7 92 -35z m-2383 -330 c2 -13 -8 -71 -21 -130 -45 -192
-44 -198 7 -97 80 160 188 255 289 255 70 0 97 -30 97 -107 -1 -32 -7 -87 -15
-123 -20 -92 -19 -93 25 -14 107 193 279 296 367 220 26 -23 28 -29 27 -98 -1
-40 -13 -131 -28 -201 -30 -147 -33 -219 -11 -237 31 -26 77 5 187 128 26 28
54 52 62 52 30 0 46 -30 46 -85 0 -47 -5 -59 -38 -102 -88 -110 -197 -173
-302 -173 -81 0 -123 23 -150 83 -25 54 -25 116 0 252 24 130 25 155 6 155
-40 0 -126 -154 -171 -305 -51 -170 -61 -185 -133 -185 -43 0 -73 24 -92 75
-14 36 -14 165 -1 260 15 103 14 155 -3 155 -44 0 -135 -194 -186 -399 -15
-58 -49 -91 -95 -91 -77 0 -103 40 -114 173 -13 167 19 419 64 507 22 43 60
60 125 57 49 -2 55 -5 58 -25z m-2027 -432 c27 -15 49 -63 49 -108 0 -82 -97
-324 -155 -386 -31 -33 -85 -36 -116 -5 -23 23 -23 16 6 174 8 44 14 110 15
147 0 84 23 144 64 169 34 21 106 25 137 9z m1652 -1237 c38 -44 29 -135 -24
-218 l-29 -46 24 -9 c28 -10 66 -56 66 -80 0 -15 6 -16 41 -10 30 6 42 4 46
-6 11 -30 -3 -49 -45 -59 -34 -9 -47 -18 -60 -44 -34 -71 -122 -93 -171 -43
l-28 27 -52 -27 c-126 -66 -233 -4 -218 124 5 42 4 48 -13 48 -10 0 -25 2 -32
5 -9 4 -20 -7 -30 -27 -44 -93 -141 -178 -201 -178 -55 0 -107 84 -107 174 0
28 -2 26 -26 -24 -65 -139 -151 -188 -214 -120 -49 52 -69 187 -51 343 13 113
22 137 55 137 39 0 46 -19 36 -90 -20 -135 -9 -317 20 -335 19 -12 46 5 73 47
31 49 80 192 97 288 13 74 23 90 55 90 38 0 46 -20 35 -86 -13 -77 -13 -249 0
-293 24 -83 85 -62 150 52 l27 48 -28 28 c-59 60 -61 171 -4 228 40 40 82 43
120 10 34 -29 42 -91 21 -167 -8 -30 -13 -56 -12 -57 6 -6 105 -5 147 2 40 6
50 4 68 -14 46 -46 17 -125 -59 -155 -46 -18 -49 -23 -18 -35 26 -10 83 4 116
28 20 14 23 27 27 106 10 193 82 355 159 355 13 0 30 -8 39 -17z m1690 -1 c26
-28 31 -92 13 -161 -18 -69 -74 -187 -112 -239 -33 -43 -25 -72 20 -72 41 0
56 15 56 57 0 76 52 141 119 150 51 7 86 -14 109 -65 13 -29 22 -36 40 -34 18
3 22 10 22 41 0 43 14 61 47 61 18 0 23 -6 23 -25 l0 -24 26 24 c58 54 128 13
128 -73 0 -26 -8 -62 -17 -79 -17 -33 -17 -33 5 -33 36 1 58 24 58 59 0 77 53
140 123 148 56 7 87 -19 87 -71 0 -43 -29 -80 -81 -100 -31 -12 -39 -20 -31
-28 16 -16 68 -12 110 10 31 16 38 25 44 63 14 87 27 118 53 125 39 10 44 -1
29 -63 -15 -65 -13 -78 6 -33 16 40 84 100 113 100 37 0 46 -18 40 -71 -5 -43
-3 -49 12 -49 10 0 27 8 37 17 13 12 22 13 29 6 29 -29 -36 -93 -93 -93 -42 0
-71 34 -63 72 17 75 -53 -14 -76 -97 -6 -22 -16 -46 -21 -52 -16 -20 -49 -15
-55 7 -6 24 -2 24 -54 0 -56 -25 -105 -25 -152 0 -37 20 -37 20 -69 0 -35 -21
-88 -26 -104 -10 -10 10 -84 -7 -84 -19 0 -17 -20 -124 -30 -159 -14 -54 -55
-102 -86 -102 -86 0 -85 139 2 312 l34 68 -24 0 c-17 0 -26 -7 -30 -24 -3 -13
-22 -38 -41 -55 -42 -36 -84 -40 -130 -12 -30 18 -32 18 -65 0 -53 -29 -106
-21 -136 19 -10 13 -18 12 -65 -11 -91 -46 -179 -27 -207 44 -12 33 -19 38
-52 41 -33 3 -41 0 -54 -23 -50 -84 -110 -112 -141 -65 l-15 23 -47 -23 c-109
-56 -213 -4 -213 106 0 76 53 139 123 147 56 7 87 -19 87 -71 0 -43 -29 -80
-81 -100 -31 -12 -39 -20 -31 -28 16 -16 68 -12 110 10 l37 19 3 81 c3 77 4
82 27 88 36 9 45 -2 46 -59 0 -29 4 -72 7 -97 l7 -45 23 38 c13 23 22 55 22
81 0 64 46 104 89 77 10 -6 12 -22 9 -53 -5 -42 -4 -44 18 -40 13 2 26 12 29
21 20 64 132 104 174 62 46 -46 17 -125 -59 -155 -46 -18 -49 -23 -18 -35 26
-10 83 4 116 28 20 14 23 27 27 101 5 95 33 218 64 278 37 73 99 103 134 64z
m-1108 -51 c101 -45 140 -164 99 -300 -19 -65 -77 -131 -142 -161 -56 -27
-191 -38 -236 -21 l-29 12 6 79 c7 87 43 257 59 278 12 14 64 16 72 3 3 -4 -5
-57 -18 -117 -37 -167 -38 -191 -12 -198 28 -6 94 7 133 27 70 37 114 179 84
270 -20 59 -62 82 -151 82 -62 0 -85 -5 -132 -28 -63 -31 -78 -29 -78 8 0 25
25 43 99 70 55 21 198 18 246 -4z"/>
<path d="M10911 5671 c-51 -51 -128 -360 -145 -581 l-6 -75 79 158 c43 87 89
188 101 225 23 68 38 210 26 255 -8 33 -32 41 -55 18z"/>
<path d="M12811 5664 c-40 -51 -96 -235 -126 -417 -8 -50 -17 -105 -20 -121
-5 -27 -3 -27 28 15 58 75 125 200 152 283 52 155 28 319 -34 240z"/>
<path d="M14362 5670 c-58 -62 -135 -375 -163 -656 -6 -62 -9 -119 -7 -125 5
-16 129 235 163 331 64 179 87 401 47 450 l-19 23 -21 -23z"/>
<path d="M10816 4910 c-48 -43 -68 -99 -69 -195 -1 -88 14 -128 59 -164 32
-25 55 -26 94 -6 38 20 68 60 76 101 5 28 1 39 -28 74 -41 47 -58 97 -58 169
0 44 -3 51 -20 51 -10 0 -35 -14 -54 -30z"/>
<path d="M6236 5568 c-18 -18 -47 -69 -65 -112 -35 -83 -81 -251 -81 -293 0
-23 0 -23 33 -7 122 62 197 198 197 359 0 40 -22 85 -42 85 -5 0 -24 -15 -42
-32z"/>
<path d="M8765 3317 c-15 -35 -48 -207 -42 -214 10 -9 81 165 81 200 1 52 -20
59 -39 14z"/>
<path d="M8267 3303 c-16 -27 -17 -75 -2 -109 21 -52 38 -33 43 51 4 60 3 65
-16 65 -12 0 -23 -3 -25 -7z"/>
<path d="M8491 3062 c-11 -9 -23 -29 -27 -44 -6 -27 -6 -28 25 -17 29 10 51
35 51 57 0 19 -29 21 -49 4z"/>
<path d="M8736 3058 c-24 -34 -21 -103 6 -122 15 -11 26 -12 39 -6 28 15 31
42 10 84 -11 21 -17 44 -14 52 9 23 -24 16 -41 -8z"/>
<path d="M10456 3318 c-19 -45 -46 -179 -46 -225 l1 -38 29 55 c54 106 76 227
42 238 -7 2 -18 -11 -26 -30z"/>
<path d="M9671 3062 c-11 -9 -23 -29 -27 -44 -6 -27 -6 -28 25 -17 29 10 51
35 51 57 0 19 -29 21 -49 4z"/>
<path d="M10181 3062 c-11 -9 -23 -29 -27 -44 -6 -27 -6 -28 25 -17 29 10 51
35 51 57 0 19 -29 21 -49 4z"/>
<path d="M10894 3055 c-20 -20 -24 -34 -24 -80 0 -30 3 -55 6 -55 19 0 48 26
60 55 32 77 6 128 -42 80z"/>
<path d="M11171 3062 c-11 -9 -23 -29 -27 -44 -6 -27 -6 -28 25 -17 29 10 51
35 51 57 0 19 -29 21 -49 4z"/>
<path d="M10605 3060 c-17 -27 -23 -73 -14 -99 12 -34 26 -41 56 -30 32 12 38
44 14 75 -12 15 -21 35 -21 45 0 20 -25 26 -35 9z"/>
<path d="M10770 2819 c-26 -78 -32 -150 -14 -156 6 -2 14 4 18 13 8 22 28 205
23 210 -2 3 -15 -28 -27 -67z"/>
</g>
</svg>
